<?xml version="1.0" encoding="UTF-8" standalone="no"?>
<svg
   xmlns:dc="http://purl.org/dc/elements/1.1/"
   xmlns:cc="http://creativecommons.org/ns#"
   xmlns:rdf="http://www.w3.org/1999/02/22-rdf-syntax-ns#"
   xmlns:svg="http://www.w3.org/2000/svg"
   xmlns="http://www.w3.org/2000/svg"
   xmlns:sodipodi="http://sodipodi.sourceforge.net/DTD/sodipodi-0.dtd"
   xmlns:inkscape="http://www.inkscape.org/namespaces/inkscape"
   version="1.1"
   id="svg2"
   sodipodi:docname="amiga.svg"
   inkscape:version="1.0.2 (e86c870879, 2021-01-15)"
   x="0px"
   y="0px"
   width="63.637386"
   height="63.637726"
   viewBox="200 0 560.009 560.01198"
   enable-background="new 200 0 560 560"
   xml:space="preserve"><metadata
   id="metadata33"><rdf:RDF><cc:Work
       rdf:about=""><dc:format>image/svg+xml</dc:format><dc:type
         rdf:resource="http://purl.org/dc/dcmitype/StillImage" /><dc:title>Checkerd Ball</dc:title></cc:Work></rdf:RDF></metadata><defs
   id="defs31" />
<sodipodi:namedview
   inkscape:cy="318.05135"
   inkscape:cx="135.007"
   inkscape:zoom="0.87407407"
   showgrid="false"
   id="namedview31"
   guidetolerance="10"
   gridtolerance="10"
   objecttolerance="10"
   borderopacity="1"
   bordercolor="#666666"
   pagecolor="#ffffff"
   inkscape:window-maximized="1"
   inkscape:window-x="0"
   inkscape:window-height="1016"
   inkscape:window-width="1920"
   inkscape:window-y="0"
   inkscape:pageshadow="2"
   inkscape:pageopacity="0"
   inkscape:current-layer="svg2"
   inkscape:document-rotation="0"
   inkscape:pagecheckerboard="false"
   scale-x="8.8"
   fit-margin-top="0"
   fit-margin-left="0"
   fit-margin-right="0"
   fit-margin-bottom="0">
	</sodipodi:namedview>
<title
   id="title4020">Checkerd Ball</title>
<g
   id="layer1"
   transform="translate(-423.776,-335.919)">
	<path
   id="path4016"
   opacity="0.3"
   fill="#ffffff"
   enable-background="new    "
   d="m 1183.785,615.925 c 0,154.643 -125.362,280.006 -280.005,280.006 -154.642,0 -280.004,-125.363 -280.004,-280.006 0,-154.644 125.362,-280.006 280.004,-280.006 154.643,0 280.005,125.363 280.005,280.006 z" />
	<g
   id="g3952"
   transform="matrix(0.99259,0,0,0.99593,312.55,-64.375)">
		<g
   id="g3972">
			<path
   id="path3132"
   fill="#ff0000"
   d="m 562.783,961.784 -9.308,-1.347 8.274,-1.791 8.274,-1.792 -18.291,-3.926 c -17.182,-3.687 -18.446,-3.712 -20.863,-0.406 -2.407,3.293 -3.432,3.234 -15.91,-0.92 -7.336,-2.442 -16.564,-7.073 -20.507,-10.293 -6.208,-5.068 -26.822,-14.008 -26.822,-11.632 0,0.464 2.56,2.232 5.689,3.929 3.129,1.698 4.738,3.124 3.577,3.17 -2.545,0.1 -34.088,-18.171 -34.088,-19.744 0,-0.608 1.163,-0.421 2.586,0.418 1.422,0.838 -4.554,-6.001 -13.281,-15.199 -8.726,-9.198 -20.036,-23.848 -25.134,-32.555 -8.813,-15.057 -9.999,-16.183 -24.223,-23.001 l -14.956,-7.169 3.661,5.737 c 5.172,8.106 16.785,22.753 26.693,33.666 l 8.451,9.31 -11.009,-10.345 c -16.013,-15.046 -38.991,-46.432 -40.892,-55.858 -1.231,-6.099 -12.938,-27.579 -14.34,-26.312 -0.905,0.818 -1.018,0.39 -0.251,-0.948 0.767,-1.339 -0.943,-9.596 -3.799,-18.348 -2.856,-8.752 -6.273,-22.087 -7.591,-29.632 -1.318,-7.545 -3.814,-14.874 -5.546,-16.286 -8.533,-6.956 -8.659,-65.773 -0.229,-107.378 1.705,-8.416 2.892,-10.462 5.675,-9.783 2.828,0.69 4.717,-2.91 9.618,-18.323 6.557,-20.623 22.778,-54.245 34.123,-70.738 4.691,-6.818 5.866,-9.743 3.559,-8.858 -1.894,0.727 -3.444,0.512 -3.444,-0.479 0,-3.686 40.104,-43.821 54.967,-55.011 30.215,-22.744 79.622,-44.866 115.369,-51.657 17.041,-3.238 37.874,-4.521 39.934,-2.461 0.776,0.776 -0.839,1.419 -3.588,1.429 -9.03,0.034 -44.773,13.655 -60.202,22.943 -14.262,8.585 -14.773,9.141 -8.922,9.723 3.413,0.34 17.299,2.38 30.858,4.535 l 24.652,3.918 14.842,-13.845 c 8.163,-7.615 19.596,-16.285 25.407,-19.267 l 10.566,-5.422 -9.495,-1.302 c -5.223,-0.716 -12.392,-1.316 -15.93,-1.333 -4.915,-0.025 -5.701,-0.505 -3.331,-2.037 3.511,-2.27 26.867,-2.423 42.404,-0.279 l 10.343,1.427 -7.24,1.704 c -6.992,1.646 -6.673,1.833 9.308,5.465 15.058,3.422 16.778,3.465 19.094,0.485 2.312,-2.975 3.726,-2.918 15.456,0.634 7.101,2.15 15.73,6.349 19.174,9.33 3.445,2.981 10.918,6.942 16.606,8.802 8.549,2.796 9.646,2.851 6.327,0.32 -2.209,-1.685 -3.12,-3.063 -2.026,-3.063 2.535,0 33.966,18.348 33.966,19.827 0,0.608 -1.164,0.399 -2.586,-0.466 -1.423,-0.864 3.933,5.522 11.901,14.193 7.967,8.672 18.672,22.726 23.788,31.232 8.72,14.498 10.239,15.922 24.297,22.769 8.249,4.017 14.997,6.868 14.997,6.335 0,-2.388 -18.411,-25.53 -31.714,-39.864 l -14.62,-15.753 16.066,15.517 c 17.964,17.35 38.314,43.088 39.672,50.174 0.49,2.557 2.158,5.581 3.706,6.719 1.548,1.138 2.937,3 3.085,4.138 0.149,1.137 4.021,11.109 8.606,22.157 4.585,11.049 10.724,30.134 13.643,42.411 2.919,12.278 6.698,23.404 8.398,24.725 7.408,5.757 8.788,69.035 2.225,102.076 -2.253,11.346 -3.306,13.385 -6.735,13.047 -3.383,-0.332 -4.911,2.408 -9.114,16.346 -6.759,22.412 -19.849,51.063 -31.707,69.394 -6.629,10.25 -8.733,15 -6.641,15 1.683,0 3.061,0.839 3.061,1.865 0,3.715 -39.924,43.751 -54.776,54.933 -29.12,21.918 -79.082,44.318 -115.273,51.677 -15.547,3.162 -36.609,4.428 -34.241,2.058 0.651,-0.651 9.883,-4.185 20.513,-7.853 21,-7.245 50.151,-23.118 48.214,-26.251 -0.662,-1.072 -4.174,-1.979 -7.805,-2.015 -3.63,-0.035 -16.774,-1.827 -29.21,-3.98 l -22.607,-3.916 -13.953,13.955 c -7.673,7.675 -18.211,16.214 -23.418,18.977 -5.206,2.761 -9.466,5.613 -9.466,6.335 0,0.722 6.194,1.978 13.764,2.789 9.257,0.991 12.813,2.076 10.86,3.312 -3.235,2.048 -26.829,2.01 -41.17,-0.067 z" />
			<path
   id="path3130"
   fill="#ffffff"
   d="m 535.239,921.526 c 2.652,-12.411 4.495,-22.894 4.096,-23.292 -0.399,-0.399 -15.999,-5.004 -34.666,-10.232 -18.668,-5.228 -35.618,-9.997 -37.667,-10.596 -3.185,-0.932 -3.52,-0.224 -2.3,4.868 2.933,12.246 11.568,33.067 17.635,42.523 5.503,8.577 7.715,10.185 18.018,13.09 6.459,1.821 14.072,4.139 16.916,5.15 11.629,4.134 12.785,2.75 17.97,-21.512 z" />
			<path
   id="path3128"
   fill="#ffffff"
   d="m 743.02,918.041 c 19.018,-12.916 39.796,-31.538 54.757,-49.079 l 13.512,-15.838 -19.282,-2.5 c -28.84,-3.74 -26.511,-4.487 -38.254,12.27 -13.054,18.627 -30.928,38.34 -46.561,51.352 -11.664,9.708 -11.805,9.952 -6.296,10.789 3.1,0.472 11.04,0.997 17.644,1.167 10.891,0.281 13.17,-0.478 24.48,-8.161 z" />
			<path
   id="path3126"
   fill="#ffffff"
   d="m 638.756,892.904 c 7.787,-11.663 19.004,-30.657 24.926,-42.207 l 10.769,-21.002 -16.017,-3.491 c -8.809,-1.919 -32.773,-7.514 -53.25,-12.43 -20.479,-4.918 -37.612,-8.57 -38.074,-8.116 -1.923,1.892 -22.319,88.914 -21.136,90.187 0.709,0.765 16.183,4.656 34.386,8.647 18.203,3.99 34.958,7.679 37.234,8.196 2.276,0.517 4.782,1.048 5.571,1.181 0.787,0.13 7.804,-9.304 15.591,-20.965 z" />
			<path
   id="path3124"
   fill="#ffffff"
   d="m 459.349,871.977 c 0,-0.414 -1.013,-5.767 -2.252,-11.896 -1.239,-6.129 -2.868,-27.821 -3.62,-48.204 l -1.368,-37.059 -39.301,-11.903 c -21.616,-6.546 -39.627,-11.575 -40.028,-11.176 -0.399,0.399 0.724,9.864 2.496,21.033 3.94,24.833 12.052,53.382 19.531,68.737 l 5.589,11.474 27.926,9.763 c 27.73,9.696 31.028,10.677 31.028,9.233 v -0.002 z" />
			<path
   id="path3122"
   fill="#ffffff"
   d="m 768.947,834.975 c 8.939,-14.122 22.534,-44.559 30.313,-67.872 11.633,-34.863 15.796,-29.928 -35.828,-42.475 -24.46,-5.945 -44.7,-10.592 -44.976,-10.327 -0.277,0.265 -4.269,13.359 -8.87,29.097 -4.601,15.739 -13.305,41.071 -19.34,56.297 -6.035,15.224 -10.421,28.007 -9.747,28.403 0.675,0.398 16.12,3.577 34.325,7.064 18.202,3.488 34.958,6.743 37.233,7.234 9.428,2.033 11.475,1.134 16.89,-7.421 z" />
			<path
   id="path3120"
   fill="#ffffff"
   d="m 577.654,741.538 c 7.751,-31.76 13.685,-58.153 13.187,-58.65 -2.109,-2.11 -114.028,-29.097 -115.229,-27.786 -3.692,4.031 -18.332,94.737 -18.332,113.584 0,5.215 -4.033,3.815 58.953,20.46 22.755,6.013 42.712,10.755 44.35,10.536 2.116,-0.282 7.065,-17.142 17.071,-58.144 z" />
			<path
   id="path3118"
   fill="#ffffff"
   d="m 373.192,660.67 c 1.797,-10.241 3.845,-21.465 4.551,-24.941 l 1.282,-6.321 -22.414,-5.289 c -15.743,-3.714 -22.796,-4.604 -23.699,-2.989 -6.44,11.537 -10.322,103.238 -4.612,108.949 1.308,1.308 10.617,5.48 20.685,9.272 l 18.307,6.893 1.316,-33.477 c 0.724,-18.413 2.786,-41.857 4.583,-52.097 v 0 z" />
			<path
   id="path3116"
   fill="#ffffff"
   d="m 864.996,722.56 c 2.923,-17.959 3.689,-69.823 1.211,-81.94 -1.482,-7.244 -2.38,-7.951 -17.555,-13.804 -8.797,-3.393 -18.307,-6.747 -21.133,-7.455 l -5.138,-1.286 -0.362,32.675 c -0.249,22.403 -1.719,40.42 -4.675,57.309 -2.371,13.548 -3.9,25.044 -3.397,25.548 0.503,0.503 10.984,3.454 23.292,6.559 25.917,6.539 23.588,8.017 27.757,-17.606 z" />
			<path
   id="path3114"
   fill="#ffffff"
   d="m 718.381,692.569 c 7.124,-30.466 16.563,-103.274 13.388,-103.274 -0.671,0 -24.271,-6.043 -52.442,-13.429 -28.173,-7.385 -51.838,-12.739 -52.591,-11.896 -2.585,2.896 -28.838,115.07 -27.264,116.501 2.072,1.885 110.598,28.709 113.263,27.996 1.132,-0.302 3.673,-7.458 5.646,-15.898 z" />
			<path
   id="path3112"
   fill="#ffffff"
   d="m 480.049,622.403 c 9.144,-30.369 13.288,-42.137 23.586,-66.972 4.185,-10.095 7.206,-18.757 6.714,-19.25 -0.493,-0.493 -18.33,-4.264 -39.636,-8.38 -27.948,-5.398 -39.681,-6.895 -42.12,-5.372 -5.7,3.559 -28.176,50.663 -37.375,78.327 -4.787,14.399 -8.362,26.521 -7.943,26.94 1.361,1.362 83.22,21.201 86.147,20.877 1.756,-0.193 5.811,-10.18 10.626,-26.172 z" />
			<path
   id="path3110"
   fill="#ffffff"
   d="M 817.749,605.333 C 814.057,574.991 804.5,538.877 795.393,520.852 l -4.791,-9.485 -28.581,-9.674 c -15.72,-5.321 -29.089,-9.664 -29.711,-9.652 -0.622,0.013 0.026,7.703 1.438,17.091 1.414,9.387 2.621,31.082 2.683,48.212 l 0.112,31.142 37.75,11.519 c 20.763,6.335 39.218,11.639 41.013,11.786 2.505,0.204 3.071,-1.293 2.443,-6.458 z" />
			<path
   id="path3108"
   fill="#ffffff"
   d="m 634.38,514.821 c 6.046,-23.327 11.027,-43.458 11.068,-44.74 0.041,-1.28 -2.484,-2.883 -5.613,-3.561 -3.129,-0.679 -20.582,-4.495 -38.785,-8.48 l -33.096,-7.247 -3.711,4.601 c -14.032,17.396 -49.209,76.828 -46.688,78.873 0.415,0.336 16.113,4.027 34.885,8.201 18.772,4.174 41.112,9.344 49.644,11.488 8.533,2.144 16.817,3.758 18.409,3.586 1.966,-0.212 6.422,-13.922 13.887,-42.724 z" />
			<path
   id="path3106"
   fill="#ffffff"
   d="m 436.783,503.974 c 10.88,-15.513 33.594,-39.822 50.081,-53.599 l 12.002,-10.028 h -18.46 -18.46 l -17.991,12.799 c -9.895,7.04 -27.861,23.099 -39.924,35.689 l -21.934,22.89 17.422,2.273 c 29.363,3.831 27.123,4.434 37.263,-10.022 z" />
			<path
   id="path3104"
   fill="#ffffff"
   d="m 725.204,480.163 c -2.228,-12.018 -12.923,-36.213 -19.21,-43.463 -4.472,-5.155 -9.566,-7.641 -24.132,-11.774 -10.155,-2.882 -18.848,-4.855 -19.318,-4.385 -0.469,0.47 -3.427,11.025 -6.571,23.456 l -5.718,22.601 37.445,10.464 c 20.596,5.756 37.782,10.554 38.194,10.663 0.411,0.109 0.1,-3.294 -0.692,-7.561 z" />
			<path
   id="path3090"
   fill="#ffffff"
   d="m 409.447,891.867 c -2.573,-3.282 -2.5,-3.354 0.781,-0.781 1.991,1.562 3.62,3.191 3.62,3.62 0,1.703 -1.699,0.607 -4.401,-2.839 z" />
		</g>
	</g>
	
		<radialGradient
   id="path3970_1_"
   cx="505.58829"
   cy="794.30481"
   r="83.2257"
   gradientTransform="matrix(3.6134,3.5974,2.5081,-2.5194,-3027.6069,693.9171)"
   gradientUnits="userSpaceOnUse">
		<stop
   offset="0"
   style="stop-color:#FFFFFF"
   id="stop23" />
		<stop
   offset="1"
   style="stop-color:#A2A2A2"
   id="stop25" />
	</radialGradient>
	<path
   id="path3970"
   opacity="0.3"
   fill="url(#path3970_1_)"
   enable-background="new    "
   d="m 1183.785,615.925 c 0,154.643 -125.362,280.006 -280.005,280.006 -154.642,0 -280.004,-125.363 -280.004,-280.006 0,-154.644 125.362,-280.006 280.004,-280.006 154.643,0 280.005,125.363 280.005,280.006 z"
   style="fill:url(#path3970_1_)" />
</g>
</svg>
