<?xml version="1.0" encoding="UTF-8" standalone="no"?>
<svg
   xmlns:dc="http://purl.org/dc/elements/1.1/"
   xmlns:cc="http://creativecommons.org/ns#"
   xmlns:rdf="http://www.w3.org/1999/02/22-rdf-syntax-ns#"
   xmlns:svg="http://www.w3.org/2000/svg"
   xmlns="http://www.w3.org/2000/svg"
   xmlns:sodipodi="http://sodipodi.sourceforge.net/DTD/sodipodi-0.dtd"
   xmlns:inkscape="http://www.inkscape.org/namespaces/inkscape"
   id="svg2"
   width="59.955734"
   height="57.002132"
   version="1.1"
   sodipodi:docname="Digital_Research_Logo.svg"
   viewBox="0 0 449.668 427.51599"
   inkscape:version="1.0.2 (e86c870879, 2021-01-15)">
  <defs
     id="defs7" />
  <sodipodi:namedview
     pagecolor="#ffffff"
     bordercolor="#666666"
     borderopacity="1"
     objecttolerance="10"
     gridtolerance="10"
     guidetolerance="10"
     inkscape:pageopacity="0"
     inkscape:pageshadow="2"
     inkscape:window-width="1920"
     inkscape:window-height="1016"
     id="namedview5"
     showgrid="false"
     fit-margin-top="0"
     fit-margin-left="0"
     fit-margin-right="0"
     fit-margin-bottom="0"
     scale-x="7.5"
     inkscape:zoom="1.6456841"
     inkscape:cx="430.11402"
     inkscape:cy="93.6532"
     inkscape:window-x="0"
     inkscape:window-y="0"
     inkscape:window-maximized="1"
     inkscape:current-layer="svg2" />
  <metadata
     id="metadata7">
    <rdf:RDF>
      <cc:Work
         rdf:about="">
        <dc:format>image/svg+xml</dc:format>
        <dc:type
           rdf:resource="http://purl.org/dc/dcmitype/StillImage" />
        <dc:title></dc:title>
      </cc:Work>
    </rdf:RDF>
  </metadata>
  <path
     id="text2996"
     d="M 58.389,0 C 26.335,0 0,25.664 0,57.718 v 312.08 c 0,32.054 26.335,57.718 58.389,57.718 h 332.89 c 32.054,0 58.389,-25.664 58.389,-57.718 V 57.718 C 449.668,25.664 423.333,0 391.279,0 Z m 0,21.476 h 332.89 c 20.528,0 36.913,15.714 36.913,36.242 v 312.08 c 0,20.528 -16.385,36.242 -36.913,36.242 H 58.389 c -20.528,0 -36.913,-15.714 -36.913,-36.242 V 57.718 c 0,-20.528 16.385,-36.242 36.913,-36.242 z m 68.52,50.3355 c -24.693,0 -44.966,20.274 -44.966,44.966 v 182.55 c 0,24.693 20.274,44.966 44.966,44.966 h 19.463 c 24.693,0 44.966,-20.274 44.966,-44.966 v -182.55 c 0,-24.693 -20.273,-44.966 -44.966,-44.966 z m 178.52,0 c -24.693,0 -44.966,20.274 -44.966,44.966 v 182.55 c 0,24.693 20.274,44.966 44.966,44.966 h 19.463 c 24.693,0 44.966,-20.274 44.966,-44.966 v -182.55 c 0,-24.693 -20.273,-44.966 -44.966,-44.966 z m 0,21.476 h 19.463 c 13.167,0 23.49,10.324 23.49,23.49 v 182.55 c 0,13.166 -10.323,23.49 -23.49,23.49 h -19.463 c -13.166,0 -23.49,-10.324 -23.49,-23.49 v -182.55 c 0,-13.166 10.324,-23.49 23.49,-23.49 z"
     fill="#79090b"
     sodipodi:nodetypes="sssssssssssssssssssssssssssssssssssssssssssss" />
</svg>
