<?xml version="1.0" encoding="UTF-8" standalone="no"?>
<svg
   xmlns:dc="http://purl.org/dc/elements/1.1/"
   xmlns:cc="http://creativecommons.org/ns#"
   xmlns:rdf="http://www.w3.org/1999/02/22-rdf-syntax-ns#"
   xmlns:svg="http://www.w3.org/2000/svg"
   xmlns="http://www.w3.org/2000/svg"
   xmlns:sodipodi="http://sodipodi.sourceforge.net/DTD/sodipodi-0.dtd"
   xmlns:inkscape="http://www.inkscape.org/namespaces/inkscape"
   width="90.459946mm"
   height="20.194141mm"
   viewBox="0 0 90.459945 20.194142"
   version="1.1"
   id="svg126187"
   sodipodi:docname="GEOS_logo.svg"
   inkscape:version="1.0.2 (e86c870879, 2021-01-15)">
  <metadata
     id="metadata49">
    <rdf:RDF>
      <cc:Work
         rdf:about="">
        <dc:format>image/svg+xml</dc:format>
        <dc:type
           rdf:resource="http://purl.org/dc/dcmitype/StillImage" />
        <dc:title></dc:title>
      </cc:Work>
    </rdf:RDF>
  </metadata>
  <sodipodi:namedview
     pagecolor="#ffffff"
     bordercolor="#666666"
     borderopacity="1"
     objecttolerance="10"
     gridtolerance="10"
     guidetolerance="10"
     inkscape:pageopacity="0"
     inkscape:pageshadow="2"
     inkscape:window-width="1920"
     inkscape:window-height="1016"
     id="namedview47"
     showgrid="false"
     fit-margin-top="0"
     fit-margin-left="0"
     fit-margin-right="0"
     fit-margin-bottom="0"
     inkscape:zoom="2.8"
     inkscape:cx="126.98009"
     inkscape:cy="56.634882"
     inkscape:window-x="0"
     inkscape:window-y="0"
     inkscape:window-maximized="1"
     inkscape:current-layer="layer1" />
  <defs
     id="defs126184" />
  <g
     id="layer1"
     transform="translate(-78.043833,-74.04793)">
    <g
       id="layer1-7"
       transform="translate(29.092012,-10.995987)">
      <g
         aria-label="GRAPHIC ENVIRONMENT OPERATING SYSTEM"
         id="text69755"
         style="font-size:6.35px;line-height:1.25;font-family:'GoudyOlSt XBd BT';-inkscape-font-specification:'GoudyOlSt XBd BT';fill:#000000;stroke-width:0.264583" />
      <g
         aria-label="GEOS™"
         id="text130061"
         style="font-size:27.5167px;line-height:1.25;font-family:'GoudyOlSt XBd BT';-inkscape-font-specification:'GoudyOlSt XBd BT';letter-spacing:6.08542px;word-spacing:0px;fill:#000000;stroke-width:0.264583">
        <path
           d="m 66.861855,101.5835 q 0,0.24184 0.01344,0.45682 0.01344,0.20154 0.04031,0.36277 v 0.10748 q 0,0.21498 -0.241846,0.38964 -0.241846,0.16123 -1.115179,0.49713 -0.06718,0.0269 -0.335897,0.13436 -0.268718,0.094 -0.443385,0.16123 -1.975075,0.75241 -3.56051,1.11518 -1.585435,0.37621 -2.888716,0.37621 -1.746666,0 -3.332101,-0.55088 -1.585435,-0.55087 -2.781229,-1.572 -1.625742,-1.39733 -2.445332,-3.251481 -0.819589,-1.854152 -0.819589,-4.124817 0,-2.324409 0.846461,-4.393536 0.846461,-2.069127 2.41846,-3.587383 1.424204,-1.343588 3.130562,-1.988511 1.706358,-0.644923 3.869536,-0.644923 1.007692,0 1.934768,0.188103 0.927077,0.188102 2.122871,0.658358 0.174666,0.06718 0.403077,0.174667 0.22841,0.107487 0.295589,0.134359 0.45682,0.22841 0.68523,0.309025 0.241846,0.06718 0.416513,0.06718 0.161231,0 0.29559,-0.08062 0.147794,-0.08062 0.38964,-0.349333 0.174667,-0.214974 0.29559,-0.282154 0.134359,-0.08061 0.255282,-0.08061 0.188102,0 0.268718,0.134359 0.09405,0.120923 0.120923,0.604615 l 0.376204,4.433843 q 0.01344,0.174667 0.01344,0.349333 0.01344,0.161231 0.01344,0.282154 0,0.255282 -0.06718,0.335897 -0.06718,0.08062 -0.255282,0.08062 -0.241846,0 -0.389641,-0.107487 -0.134359,-0.107488 -0.362769,-0.564308 -0.09405,-0.214974 -0.214974,-0.429948 -0.107487,-0.214974 -0.241846,-0.443385 -1.410768,-2.257229 -2.87528,-3.238049 -1.451076,-0.994256 -3.318665,-0.994256 -2.593127,0 -4.218869,2.337845 -1.612307,2.337845 -1.612307,6.167073 0,4.191998 1.491384,6.7045 1.491384,2.51252 3.950151,2.51252 1.907897,0 2.955896,-0.92708 1.061435,-0.92708 1.061435,-2.59313 v -1.437633 q 0,-1.168922 -0.268718,-1.719794 -0.268717,-0.550871 -0.91364,-0.75241 -0.255282,-0.09405 -0.510564,-0.147794 -0.241846,-0.05374 -0.510564,-0.08062 -0.550871,-0.107487 -0.68523,-0.22841 -0.134359,-0.134359 -0.134359,-0.403076 0,-0.335898 0.134359,-0.429949 0.134359,-0.09405 0.604615,-0.09405 0.120923,0 0.214974,0.01344 0.09405,0 0.188103,0.01344 0.04031,0.01344 0.09405,0.01344 1.397332,0.08062 2.619998,0.08062 0.940512,0 1.840717,-0.02687 0.900205,-0.04031 1.907896,-0.120923 0.161231,0 0.376205,-0.01344 0.22841,-0.01344 0.268718,-0.01344 0.309025,0 0.403077,0.09405 0.09405,0.08062 0.09405,0.403076 0,0.564308 -0.524,0.712102 h -0.02687 q -0.214974,0.02687 -0.362769,0.09405 -0.147794,0.06718 -0.268717,0.188102 -0.322462,0.29559 -0.510564,1.021128 -0.174667,0.712102 -0.174667,1.706357 z"
           style="letter-spacing:5.82083px;fill:#000000"
           id="path205099" />
        <path
           d="m 78.016732,99.984626 v -10.13066 q 0,-1.20923 -0.188103,-1.827281 -0.174666,-0.618051 -0.604615,-0.98082 -0.214974,-0.174667 -0.470256,-0.282154 -0.255282,-0.107487 -0.779281,-0.214974 -0.05374,-0.01344 -0.134359,-0.02687 -0.06718,-0.01344 -0.255282,-0.05374 -0.134359,-0.04031 -0.241846,-0.188103 -0.107487,-0.16123 -0.107487,-0.335897 0,-0.255282 0.188102,-0.416513 0.201539,-0.16123 0.537436,-0.16123 0.08062,0 0.147795,0.01344 0.08062,0 0.174666,0.01344 0.900205,0.09405 1.706358,0.134358 0.806153,0.04031 1.652614,0.04031 4.501023,0 8.773636,-0.268718 l 0.107487,-0.01344 q 0.22841,0 0.470256,-0.01344 0.255282,-0.01344 0.282154,-0.01344 0.564307,0.01344 0.631487,0.671794 0,0.01344 0,0.01344 v 0.120923 l 0.188102,2.71405 q 0.01344,0.04031 0.01344,0.09405 0.01344,0.05374 0.01344,0.134359 0,0.120923 0.01344,0.268717 0.01344,0.147795 0.01344,0.188103 0,0.362769 -0.120923,0.497128 -0.120923,0.120923 -0.456821,0.120923 -0.214974,0 -0.322461,-0.120923 -0.107487,-0.134359 -0.201538,-0.604615 0,-0.01344 0,-0.04031 -0.05374,-0.376205 -0.134359,-0.618051 -0.335897,-1.047999 -1.262974,-1.451076 -0.927076,-0.416512 -3.305228,-0.416512 -1.464512,0 -1.80041,0.322461 -0.322461,0.322461 -0.322461,1.625743 v 3.667997 q 0,0.873333 0.241846,1.061436 0.241846,0.174666 1.558563,0.174666 1.007692,0 1.639179,-0.282154 0.631487,-0.295589 1.021127,-0.927076 0.120923,-0.214974 0.268718,-0.618051 0.02687,-0.06718 0.04031,-0.107487 l 0.01344,-0.04031 q 0.214974,-0.618051 0.591179,-0.618051 0.282153,0 0.403076,0.147795 0.120923,0.147795 0.120923,0.483692 0,0.22841 -0.04031,0.779282 -0.01344,0.107487 -0.01344,0.161231 -0.04031,0.510563 -0.05374,0.900204 0,0.376205 0,0.725538 0,0.631487 0.04031,1.236102 0.05374,0.604615 0.147795,1.195794 0.01344,0.06718 0.01344,0.161231 0.04031,0.309025 0.04031,0.376205 0,0.322461 -0.107487,0.45682 -0.09405,0.120923 -0.335897,0.120923 -0.268718,0 -0.389641,-0.120923 -0.120923,-0.120923 -0.16123,-0.577743 -0.01344,-0.05374 -0.02687,-0.161231 -0.08062,-0.376205 -0.161231,-0.564307 -0.362769,-0.765846 -1.088307,-1.074872 -0.712102,-0.309025 -2.243793,-0.309025 -0.940513,0 -1.236102,0.29559 -0.282154,0.282153 -0.282154,1.59887 v 3.694866 q 0,1.70636 0.322461,2.12287 0.322462,0.40308 1.303282,0.40308 1.89446,0 3.358972,-0.55087 1.464512,-0.56431 2.512511,-1.70636 0.22841,-0.24185 0.497128,-0.69867 0.05374,-0.0806 0.08061,-0.13435 0.147795,-0.335901 0.282154,-0.443388 0.134359,-0.120923 0.322461,-0.120923 0.241846,0 0.376205,0.188103 0.147795,0.174666 0.147795,0.497128 0,0.59118 -0.201538,1.27641 -0.201539,0.67179 -0.577743,1.34359 -0.618051,1.0883 -1.410769,1.572 -0.779281,0.48369 -1.921332,0.48369 -0.309025,0 -0.75241,-0.0269 -0.429948,-0.0134 -0.953948,-0.0538 -0.241846,-0.0134 -0.765846,-0.0403 -2.499075,-0.12092 -4.151689,-0.12092 -1.316717,0 -3.130562,0.20154 -0.147795,0.0134 -0.201539,0.0134 -0.295589,0.0403 -0.550871,0.0537 -0.241846,0.0269 -0.416513,0.0269 -0.22841,0 -0.403076,-0.17467 -0.174667,-0.17466 -0.174667,-0.40307 0,-0.20154 0.134359,-0.36277 0.147795,-0.16123 0.618051,-0.37621 0.376205,-0.17466 0.591179,-0.33589 0.214974,-0.16123 0.362769,-0.34934 0.282154,-0.34933 0.389641,-0.91364 0.107487,-0.57774 0.107487,-2.001943 z"
           style="letter-spacing:5.82083px;fill:#000000"
           id="path205101" />
        <path
           d="m 102.58063,93.817553 q 0,4.339792 1.84072,7.121017 1.85415,2.78123 4.64881,2.78123 2.60657,0 4.03077,-1.84071 1.4242,-1.85416 1.4242,-5.226564 0,-1.746666 -0.36277,-3.39928 -0.36276,-1.652615 -1.04799,-3.036511 -0.87334,-1.800409 -2.10944,-2.740922 -1.2361,-0.953948 -2.70061,-0.953948 -2.7678,0 -4.24574,1.894461 -1.47795,1.881024 -1.47795,5.401227 z m 5.64307,11.420507 q -4.58164,0 -7.3763,-2.67374 -2.78123,-2.687181 -2.78123,-7.094153 0,-1.746665 0.510564,-3.318664 0.510563,-1.585435 1.504816,-2.875281 1.51826,-2.015383 3.80236,-3.117126 2.29754,-1.115179 4.94441,-1.115179 4.55476,0 7.3763,2.687178 2.83497,2.673742 2.83497,6.973227 0,1.625742 -0.48369,3.157434 -0.47026,1.518255 -1.3839,2.808104 -1.59887,2.23035 -3.88297,3.39928 -2.2841,1.16892 -5.06533,1.16892 z"
           style="letter-spacing:5.82083px;fill:#000000"
           id="path205103" />
        <path
           d="m 127.30575,103.26298 -0.81959,-3.614251 q 0,-0.05374 -0.0134,-0.107487 -0.0134,-0.06718 -0.0537,-0.174667 -0.0269,-0.120923 -0.0537,-0.268718 -0.0269,-0.147794 -0.0269,-0.268717 0,-0.147795 0.16123,-0.241846 0.17467,-0.09405 0.44338,-0.09405 0.16123,0 0.26872,0.120923 0.12092,0.120923 0.34933,0.618051 0,0.02687 0.0269,0.08062 0.3762,0.819592 0.76584,1.410772 0.96739,1.49138 2.24379,2.25723 1.27641,0.76584 2.7678,0.76584 1.67948,0 2.59312,-0.80615 0.92708,-0.80615 0.92708,-2.29754 0,-0.53743 -0.1881,-1.007691 -0.17467,-0.483692 -0.49713,-0.833025 -0.48369,-0.564308 -2.01538,-1.101743 -0.0403,-0.01344 -0.0806,-0.02687 -0.1881,-0.09405 -0.55087,-0.214974 -0.36277,-0.134359 -0.47026,-0.174667 -3.90984,-1.625742 -5.06533,-2.915588 -1.15548,-1.303281 -1.15548,-3.466459 0,-2.552819 1.58543,-4.165126 1.58544,-1.612306 4.08451,-1.612306 1.47795,0 3.26492,0.712102 0.10749,0.04031 0.1478,0.05374 0.0269,0.01344 0.0806,0.04031 0.63149,0.268718 0.83303,0.268718 0.32246,0 0.81959,-0.22841 0.0403,-0.01344 0.0672,-0.02687 0.10748,-0.06718 0.20154,-0.09405 0.10748,-0.04031 0.17466,-0.04031 0.20154,0 0.30903,0.107487 0.10749,0.09405 0.10749,0.282154 0,0.107487 -0.0134,0.188102 0,0.06718 -0.0134,0.134359 -0.0269,0.161231 -0.0403,0.349333 -0.0134,0.174667 -0.0134,0.376205 0,0.524 0.0403,1.088307 0.0537,0.550872 0.17466,1.303281 0.0672,0.389641 0.0941,0.685231 0.0403,0.295589 0.0403,0.523999 0,0.282154 -0.0941,0.389641 -0.094,0.107487 -0.34933,0.107487 -0.26872,0 -0.42995,-0.147794 -0.16123,-0.147795 -0.3359,-0.712103 -0.0134,-0.04031 -0.0537,-0.147794 -0.20154,-0.577744 -0.38964,-0.900205 -0.8599,-1.477948 -2.04226,-2.257229 -1.18235,-0.792718 -2.55282,-0.792718 -1.31671,0 -2.19005,0.75241 -0.85989,0.75241 -0.85989,1.867589 0,1.074871 0.65836,1.746665 0.65835,0.658359 2.94246,1.491384 0.0537,0.02687 0.12092,0.05374 0.0806,0.02687 0.20154,0.05374 2.01538,0.738974 2.8081,1.155487 0.79272,0.403076 1.30328,0.859896 0.9002,0.81959 1.3839,1.975076 0.48369,1.142051 0.48369,2.458768 0,2.942461 -1.74667,4.648821 -1.74666,1.70635 -4.76974,1.70635 -0.88677,0 -2.60656,-0.45682 -0.0941,-0.0269 -0.1478,-0.0403 -0.14779,-0.0403 -0.44338,-0.10749 -0.9002,-0.22841 -1.3839,-0.30903 -0.5643,-0.094 -0.73897,-0.26871 -0.16123,-0.17467 -0.26872,-0.71211 z"
           style="letter-spacing:-1.32292px;fill:#000000"
           id="path205105" />
      </g>
    </g>
  </g>
</svg>
