<?xml version="1.0" encoding="UTF-8" standalone="no"?>
<svg
   xmlns:dc="http://purl.org/dc/elements/1.1/"
   xmlns:cc="http://creativecommons.org/ns#"
   xmlns:rdf="http://www.w3.org/1999/02/22-rdf-syntax-ns#"
   xmlns:svg="http://www.w3.org/2000/svg"
   xmlns="http://www.w3.org/2000/svg"
   xmlns:sodipodi="http://sodipodi.sourceforge.net/DTD/sodipodi-0.dtd"
   xmlns:inkscape="http://www.inkscape.org/namespaces/inkscape"
   width="59.259258"
   height="63.209877"
   version="1.1"
   viewBox="0 0 479.99999 512"
   id="svg24"
   sodipodi:docname="Msdos-icon.svg"
   inkscape:version="1.0.2 (e86c870879, 2021-01-15)">
  <metadata
     id="metadata30">
    <rdf:RDF>
      <cc:Work
         rdf:about="">
        <dc:format>image/svg+xml</dc:format>
        <dc:type
           rdf:resource="http://purl.org/dc/dcmitype/StillImage" />
        <dc:title></dc:title>
      </cc:Work>
    </rdf:RDF>
  </metadata>
  <defs
     id="defs28" />
  <sodipodi:namedview
     pagecolor="#ffffff"
     bordercolor="#666666"
     borderopacity="1"
     objecttolerance="10"
     gridtolerance="10"
     guidetolerance="10"
     inkscape:pageopacity="0"
     inkscape:pageshadow="2"
     inkscape:window-width="1920"
     inkscape:window-height="1016"
     id="namedview26"
     showgrid="false"
     fit-margin-top="0"
     fit-margin-left="2.7755576e-17"
     fit-margin-right="2.7755576e-17"
     fit-margin-bottom="0"
     scale-x="8.1"
     inkscape:zoom="1.5507812"
     inkscape:cx="227.74811"
     inkscape:cy="230.20655"
     inkscape:window-x="0"
     inkscape:window-y="0"
     inkscape:window-maximized="1"
     inkscape:current-layer="svg24" />
  <path
     d="M 16,0 V 192 H 0 v 304 h 16 v 16 h 144 v -16 h 32 v 16 h 112 v -16 h 16 v 16 h 96 v -16 h 32 v -16 h 16 v -16 h 16 V 352 h -16 v -16 h -16 v -16 h -32 v -16 h -32 v -32 h 16 v 16 h 16 v 16 h 48 v -16 h 16 v -48 h -16 v -16 h -16 v -16 h -32 v -16 h 16 v -16 h 16 V 128 H 432 V 112 H 416 V 96 H 384 V 80 H 336 V 48 h 48 v 32 h 64 V 32 H 432 V 16 H 400 V 0 h -80 v 16 h -32 v 16 h -16 v 64 h 16 v 16 h 32 v 16 h 48 v 16 h 16 v 16 h -48 v -16 h -16 v -16 h -48 v 48 h 16 v 16 h 16 v 16 H 288 V 192 H 256 V 0 h -64 v 16 h -16 v 32 h -16 v 32 h -16 v 32 H 128 V 80 H 112 V 48 H 96 V 16 H 80 V 0 Z m 64,144 h 16 v 32 h 16 v 16 H 80 Z m 96,0 h 16 v 48 h -16 v 16 h -16 v -32 h 16 z M 80,304 h 32 v 80 h 16 v 16 H 80 Z m 160,0 h 16 v 16 h 16 v 16 h 16 v 16 h 16 v 16 h -32 v 16 h -16 v 16 h -16 z m 128,80 h 32 v 16 h -32 z"
     id="path2" />
  <path
     d="m 272,464 v 16 h 16 v -16 h -16 m 16,32 h 16 v -16 h -16 v 16 m 32,-112 h 16 v -16 h -16 v 16 m -128,96 v 16 h 16 v -16 h -16 m 32,-16 h -16 v 16 h 16 v -16 m 16,16 h 16 v -16 h -16 v 16 m 16,0 v 16 h 16 v -16 h -16 m -16,16 v -16 h -16 v 16 h 16 m 0,-208 h 16 v -16 h -16 v 16 m -80,48 h 16 v -16 h -16 v 16 m 16,16 h -16 v 16 h 16 v -16 m -16,-64 v 16 h 16 v -16 h -16 m 160,48 v 16 h 16 v -16 h -16 m 0,-48 h 16 v -16 h -16 v 16 m 16,16 h -16 v 16 h 16 v -16 m -64,-64 v -16 h -16 v 16 h 16 m 16,-16 v -16 h -16 v 16 z"
     fill="#000080"
     id="path4" />
  <path
     d="m 272,480 v 16 h 16 v -16 h -16 m -80,-16 v 16 h 16 v -16 h -16 m 16,32 h 16 v -16 h -16 v 16 m 48,-32 v 16 h 16 v -16 h -16 m -16,16 v -16 h -16 v 16 h 16 v 16 h 16 V 480 H 240 M 176,272 h 16 v -16 h -16 v 16 m -16,64 v 16 h 16 v -16 h -16 m 0,-48 h 16 v -16 h -16 v 16 m 16,16 h -16 v 16 h 16 v -16 m 80,-48 h -16 v 16 h 16 v -16 m 64,80 h 16 v -16 h -16 v 16 m 16,16 h -16 v 16 h 16 v -16 m -16,-64 v 16 h 16 v -16 z"
     fill="#800080"
     id="path6" />
  <path
     d="m 352,384 v -16 h -16 v 16 h 16 M 144,368 h -16 v 16 h 16 v -16 m 16,32 v -16 h -16 v 16 h 16 m 80,32 h 16 v -16 h -16 v 16 m 16,16 h -16 v 16 h 16 v -16 m -32,-16 v 16 h 16 v -16 h -16 m 0,16 h -16 v 16 h 16 v -16 m -64,-96 h -16 v 16 h 16 v -16 m -16,-32 v 16 h 16 v -16 h -16 m -16,32 h 16 v -16 h -16 v 16 m 16,-48 h -16 v 16 h 16 v -16 m 0,-32 h -16 v 16 h 16 v -16 m 16,32 v -16 h -16 v 16 h 16 m 0,-48 h -16 v 16 h 16 v -16 m 0,-16 v 16 h 16 v -16 h -16 m 96,-16 h -16 v 16 h 16 v -16 m -64,16 v -16 h -16 v 16 h 16 m 32,0 v 16 h 16 v -16 h -16 m -32,0 v 16 h 16 v -16 h -16 m 16,-16 v -16 h -16 v 16 h 16 m 16,-16 v 16 h 16 v -16 h -16 m 0,16 h -16 v 16 h 16 v -16 m 144,128 h -16 v 16 h 16 v -16 m 0,-32 h -16 v 16 h 16 v -16 m -16,-16 h 16 v -16 h -16 v 16 m -16,0 v 16 h 16 v -16 h -16 m 0,32 v 16 h 16 v -16 h -16 m 0,-64 v 16 h 16 v -16 h -16 m -64,-48 v -16 h -16 v 16 z"
     fill="#ff00ff"
     id="path8" />
  <path
     d="m 352,400 v -16 h -16 v 16 h 16 m 16,-32 h -16 v 16 h 16 v -16 m -112,80 v 16 h 16 v -16 h -16 m -96,-64 v -16 h -16 v 16 h 16 m 80,64 h -16 v 16 h 16 v -16 m 0,-16 v 16 h 16 v -16 h -16 m -16,-16 v 16 h 16 v -16 h -16 m -16,32 h -16 v 16 h 16 v -16 h 16 v -16 h -16 v 16 M 144,320 h 16 v -16 h -16 v 16 m 0,16 v 16 h 16 v -16 h -16 m 0,16 h -16 v 16 h 16 v -16 m 0,-32 h -16 v 16 h 16 v -16 m -16,-16 h 16 v -16 h -16 v 16 m 32,-16 v -16 h -16 v 16 h 16 m 16,-32 h -16 v 16 h 16 v -16 m 0,-32 h -16 v 16 h 16 v -16 m -32,16 v 16 h 16 v -16 h -16 m 96,0 v 16 h 16 v -16 h -16 m 16,-16 v -16 h -16 v 16 h 16 m -32,0 v 16 h 16 v -16 h -16 m -16,16 v -16 h -16 v 16 h 16 v 16 h 16 v -16 h -16 m -16,16 v -16 h -16 v 16 h 16 m 0,-32 v -16 h -16 v 16 h 16 m 16,0 h 16 v -16 h -16 v 16 m 144,128 h -16 v 16 h 16 v -16 h 16 v -16 h -16 v 16 m 16,-48 h -16 v 16 h 16 v -16 m 0,-32 h -16 v 16 h 16 v -16 m -32,48 v 16 h 16 v -16 h -16 m 0,-32 v 16 h 16 v -16 z"
     fill="#0000ff"
     id="path10" />
  <path
     d="m 400,384 h 16 v -16 h -16 v 16 m 32,48 v 16 h -16 v 16 h -80 v -16 h -32 v -16 h -16 v -32 h -16 v 48 h 16 v 16 h 16 v 16 h 16 v 16 h 96 v -16 h 32 v -16 h 16 v -48 h -16 v 16 h -16 m -32,-80 h -16 v 16 h 16 v -16 m 16,-80 v 16 h 48 v -32 h -16 v 16 h -32 m -112,48 h -16 v 16 h 16 v -16 m -16,-16 h -16 v 16 h 16 v -16 m 128,-48 h -16 v 16 h 16 z"
     fill="#808000"
     id="path12" />
  <path
     d="m 176,448 h -16 v 16 H 32 v 16 H 16 v 16 h 144 v -16 h 16 v -32 m 32,-48 h -16 v 32 h 16 v -32 h 16 v -16 h -16 v 16 M 144,208 v 16 h 16 v -16 h -16 m 0,16 h -16 v 16 h 16 v -16 m -80,32 v 32 h 48 v -16 h 16 v -16 z"
     fill="#800000"
     id="path14" />
  <path
     d="m 64,288 v -32 h 64 v -32 h 16 V 208 H 16 v 272 h 16 v -16 h 128 v -16 h 16 v -16 h 16 v -32 h 16 v -16 h 16 V 272 h -32 v 112 h -16 v 16 h -16 v 16 H 64 Z"
     fill="#ff0000"
     id="path16" />
  <path
     d="M 80,96 V 80 H 64 V 64 H 48 V 192 H 64 V 96 H 80 M 96,48 H 80 V 64 H 96 V 48 M 64,16 V 32 H 80 V 16 H 64 M 208,96 V 80 h -16 v 16 h 16 m -64,48 h -16 v 16 h 16 v -16 m -16,-16 v -16 h -16 v 16 h 16 M 112,96 V 80 H 96 v 16 h 16 M 240,16 h -16 v 176 h 16 V 16 m 192,160 v -48 h -16 v 48 h 16 m -16,16 v -16 h -16 v 16 h 16 m 0,-64 v -16 h -16 v 16 h 16 M 384,96 h -16 v 16 h 16 V 96 M 320,48 h -16 v 48 h 32 V 80 H 320 V 48 h 16 V 32 h -16 v 16 m 64,-32 v 16 h 16 V 16 h -16 m 48,48 V 32 h -16 v 32 z"
     fill="#808080"
     id="path18" />
  <path
     d="m 192,16 v 32 h -16 v 32 h -16 v 32 h -16 v 48 H 128 V 128 H 112 V 96 H 96 V 64 H 80 V 32 H 64 V 16 H 32 V 192 H 48 V 64 h 16 v 16 h 16 v 32 h 16 v 32 h 16 v 32 h 16 v 16 h 16 v -16 h 16 v -32 h 16 v -32 h 16 V 80 h 16 v 112 h 16 V 16 h -32 m 128,128 h -32 v 32 h 16 v 16 h 96 v -16 h 16 v -48 h -16 v -16 h -32 v 16 h 16 v 16 h 16 v 16 h -16 v 16 h -64 v -32 m 16,-48 h -16 v 16 h 48 V 96 H 336 M 320,48 V 32 h -32 v 64 h 16 V 48 h 16 m 64,-16 v 16 h 16 v 16 h 16 V 32 h -32 m 0,0 V 16 h -64 v 16 h 16 z"
     fill="#c0c0c0"
     id="path20" />
  <path
     d="m 384,320 v 32 h 16 v 16 h 16 v 32 h -16 v 16 h -64 v -16 h -16 v -16 h -48 v 16 h 16 v 32 h 16 v 16 h 32 v 16 h 80 v -16 h 16 v -16 h 16 v -16 h 16 v -64 h -16 v -16 h -32 v -16 h -32 m 32,-96 V 208 H 304 v 16 h -16 v 16 h -16 v 64 h 16 v 16 h 16 v -48 h 16 v -16 h 96 v 16 h 32 v -16 h 16 v -16 h -16 v -16 z"
     fill="#ffff00"
     id="path22" />
</svg>
