<?xml version="1.0" encoding="UTF-8" standalone="no"?>
<svg
   xmlns:dc="http://purl.org/dc/elements/1.1/"
   xmlns:cc="http://creativecommons.org/ns#"
   xmlns:rdf="http://www.w3.org/1999/02/22-rdf-syntax-ns#"
   xmlns:svg="http://www.w3.org/2000/svg"
   xmlns="http://www.w3.org/2000/svg"
   xmlns:sodipodi="http://sodipodi.sourceforge.net/DTD/sodipodi-0.dtd"
   xmlns:inkscape="http://www.inkscape.org/namespaces/inkscape"
   version="1.1"
   id="svg2"
   xml:space="preserve"
   width="53.901249"
   height="53.893623"
   viewBox="0 0 172.484 172.45959"
   sodipodi:docname="Palm_Powered.svg"
   inkscape:version="1.0.2 (e86c870879, 2021-01-15)"><metadata
     id="metadata8"><rdf:RDF><cc:Work
         rdf:about=""><dc:format>image/svg+xml</dc:format><dc:type
           rdf:resource="http://purl.org/dc/dcmitype/StillImage" /><dc:title></dc:title></cc:Work></rdf:RDF></metadata><defs
     id="defs6" /><sodipodi:namedview
     pagecolor="#ffffff"
     bordercolor="#666666"
     borderopacity="1"
     objecttolerance="10"
     gridtolerance="10"
     guidetolerance="10"
     inkscape:pageopacity="0"
     inkscape:pageshadow="2"
     inkscape:window-width="1920"
     inkscape:window-height="1016"
     id="namedview4"
     showgrid="false"
     fit-margin-top="0"
     fit-margin-left="0"
     fit-margin-right="0"
     fit-margin-bottom="0"
     scale-x="3.2"
     inkscape:zoom="3.0695877"
     inkscape:cx="86.797329"
     inkscape:cy="111.88665"
     inkscape:window-x="0"
     inkscape:window-y="0"
     inkscape:window-maximized="1"
     inkscape:current-layer="g12" /><g
     id="g10"
     inkscape:groupmode="layer"
     inkscape:label="ink_ext_XXXXXX"
     transform="matrix(1.3333333,0,0,-1.3333333,-42.535999,241.21999)"><g
       id="g12"
       transform="scale(0.1)"><path
         d="m 965.832,1655.74 c -272.504,0 -493.441,-220.94 -493.441,-493.41 0,-113.01 38.172,-217.271 102.183,-300.533 v 485.273 h 26.078 c 7.5,0 15.508,0.38 20.727,-9.74 2.863,-5.49 3.832,-10.22 3.832,-10.22 12.852,21.05 32.23,22.43 49.668,22.43 45.066,0 64.406,-31.4 64.406,-90.35 v -215.84 c 0,-48.737 -23.523,-82.143 -64.406,-82.143 -14.891,0 -29.859,2.106 -43.977,19.168 V 800.074 c 88.039,-81.39 205.664,-131.047 334.93,-131.047 272.468,0 493.258,220.864 493.258,493.303 0,272.47 -220.79,493.41 -493.258,493.41 z m -30.633,-384.1 V 963.527 h -30.523 c -3.707,0 -8.617,-0.39 -14.66,6.95 -3.559,4.25 -5.45,12.847 -5.45,12.847 -12.765,-15.554 -25.531,-21.031 -42.851,-21.031 -44.375,0 -59.496,25.676 -59.496,77.657 v 69.78 c 0,64.2 43.898,86.02 100.062,106.91 v 53.92 c 0,26.99 -9.195,36.05 -22.441,36.05 -15.996,0 -26.371,-5.26 -26.371,-32.65 v -27.47 c 0,-10.74 -4.133,-16.47 -22.434,-16.16 h -26.617 v 37.99 c 0,51.83 24.949,80.92 74.316,80.92 52.215,0 76.465,-24.07 76.465,-75.28 z M 1043.98,963.527 h -56.453 v 432.433 c 0,3.32 -3.777,5.58 -7.254,5.58 h -15.796 v 46.34 h 79.503 z m 267.18,0 V 1272.8 c 0,27.24 -11.82,32.96 -24.66,32.96 -17.33,0 -28.09,-8.67 -28.09,-47.66 V 963.527 h -55.17 V 1272.8 c 0,27.24 -11.82,32.96 -24.66,32.96 -17.33,0 -28.02,-8.67 -28.02,-47.66 V 963.527 h -56.3 v 383.543 h 31.09 c 6.82,0 9.14,0 13.78,-3.33 6.48,-4.87 7.35,-17.95 7.35,-17.95 11.82,16.25 28.07,23.45 45.72,23.45 21.34,0 39.98,-6.04 51.12,-30.8 12,21.75 33.34,30.8 51.14,30.8 49.82,0 71.94,-33.26 71.94,-92.38 V 963.527 Z M 835.211,1104.54 v -54.23 c 0,-26.07 2.055,-45.25 21.309,-45.25 16.632,0 25.761,10.21 25.761,56.09 v 112.24 c -31.793,-15.47 -47.07,-26.06 -47.07,-68.85 z m -178.086,-98.55 c 14.66,-0.16 26.457,4.49 26.457,45.26 v 212.51 c 0,40.22 -9.824,45.1 -24.246,45.1 -18.035,0 -28.434,-14.02 -28.434,-47.35 v -220.48 c 0,-21.89 14.118,-34.81 26.223,-35.04"
         style="fill:#231f20;fill-opacity:1;fill-rule:evenodd;stroke:none"
         id="path30" /><path
         d="m 1423.19,1619.69 c -117.06,117.13 -278.74,189.46 -457.358,189.46 -178.551,0 -340.305,-72.33 -457.402,-189.46 -117.004,-116.98 -189.41,-278.65 -189.41,-457.28 0,-178.551 72.406,-340.285 189.41,-457.344 117.097,-117.031 278.851,-189.363 457.402,-189.363 178.618,0 340.298,72.332 457.358,189.363 116.96,117.059 189.46,278.793 189.46,457.344 0,178.63 -72.5,340.3 -189.46,457.28 z m -60.2,-854.35 C 1261.36,663.68 1120.95,600.797 965.832,600.797 c -155.113,0 -295.555,62.883 -397.168,164.543 -101.57,101.582 -164.476,241.97 -164.476,397.07 0,155.11 62.906,295.52 164.476,397.1 101.613,101.72 242.055,164.55 397.168,164.55 155.018,0 295.528,-62.83 397.158,-164.55 101.59,-101.58 164.49,-241.99 164.49,-397.1 0,-155.1 -62.9,-295.488 -164.49,-397.07"
         style="fill:#231f20;fill-opacity:1;fill-rule:evenodd;stroke:none"
         id="path32" /></g></g></svg>
