<?xml version="1.0" encoding="UTF-8" standalone="no"?>
<svg
   xmlns:dc="http://purl.org/dc/elements/1.1/"
   xmlns:cc="http://creativecommons.org/ns#"
   xmlns:rdf="http://www.w3.org/1999/02/22-rdf-syntax-ns#"
   xmlns:svg="http://www.w3.org/2000/svg"
   xmlns="http://www.w3.org/2000/svg"
   xmlns:sodipodi="http://sodipodi.sourceforge.net/DTD/sodipodi-0.dtd"
   xmlns:inkscape="http://www.inkscape.org/namespaces/inkscape"
   version="1.1"
   width="219.55116"
   height="42.169304"
   viewBox="-0.6520539 -0.6520539 94.457497 18.1425"
   id="svg4058"
   sodipodi:docname="QNX_201x_logo.svg"
   inkscape:version="1.0.2 (e86c870879, 2021-01-15)">
  <metadata
     id="metadata9">
    <rdf:RDF>
      <cc:Work
         rdf:about="">
        <dc:format>image/svg+xml</dc:format>
        <dc:type
           rdf:resource="http://purl.org/dc/dcmitype/StillImage" />
        <dc:title></dc:title>
      </cc:Work>
    </rdf:RDF>
  </metadata>
  <sodipodi:namedview
     pagecolor="#ffffff"
     bordercolor="#666666"
     borderopacity="1"
     objecttolerance="10"
     gridtolerance="10"
     guidetolerance="10"
     inkscape:pageopacity="0"
     inkscape:pageshadow="2"
     inkscape:window-width="1920"
     inkscape:window-height="1016"
     id="namedview7"
     showgrid="false"
     scale-x="0.43023"
     fit-margin-top="0"
     fit-margin-left="0"
     fit-margin-right="0"
     fit-margin-bottom="0"
     inkscape:zoom="1.6298828"
     inkscape:cx="434.23624"
     inkscape:cy="78.633919"
     inkscape:window-x="0"
     inkscape:window-y="0"
     inkscape:window-maximized="1"
     inkscape:current-layer="svg4058" />
  <defs
     id="defs4060" />
  <path
     d="M 63.637946,17.270446 V 0.0216961 l 10.34625,8.62375 z m -38.0225,-8.3274999 -2.365,-1.465 h -9.97 l 8.385,5.0574999 c -1.7675,0.52375 -4.02375,0.575 -6.105,0.575 -2.555,0 -6.8799999,-0.2025 -8.5262499,-1.07875 -1.5825,-0.84375 -1.59,-2.2249999 -1.59,-3.4912499 0,-1.265 0.005,-2.895 1.59,-3.73625 1.64625,-0.87625 5.9724999,-1.08 8.5262499,-1.08 2.5525,0 6.855,0.2525 8.52625,1.08 1.7475,0.865 1.52875,4.13875 1.52875,4.13875 m 68.19,-8.99375 h -9.3875 l -5.74125,4.78375 -5.73875,-4.78375 h -15.96 V 11.670446 l -13.7,-11.7212499 h -9.1325 V 14.231696 l -2.79,-1.73 c 0.40625,-1.33 0.4175,-2.7787499 0.4175,-3.9612499 0,-2.26375 -0.009,-5.755 -2.8425,-7.2625 -2.945,-1.56625 -8.80375,-1.93 -13.37,-1.93 -4.56625,0 -10.4249999,0.36375 -13.3712499,1.93 -2.8325,1.5075 -2.84125,4.99875 -2.84125,7.2625 0,2.2637499 0.0138,5.5124999 2.84125,7.0162499 2.9475,1.5725 8.8012499,1.93375 13.3712499,1.93375 3.8425,0 8.585,-0.26 11.7525,-1.275 l 1.775,1.10625 h 11.6875 V 5.6329461 l 13.6625,11.6887499 h 18.52625 l 5.7125,-4.765 5.71376,4.765 h 9.38749 l -10.4075,-8.6762499 z"
     id="path3909"
     style="fill:#232020;fill-opacity:1;fill-rule:nonzero;stroke:none" />
</svg>
