<?xml version="1.0" encoding="UTF-8" standalone="no"?>
<svg
   xmlns:dc="http://purl.org/dc/elements/1.1/"
   xmlns:cc="http://creativecommons.org/ns#"
   xmlns:rdf="http://www.w3.org/1999/02/22-rdf-syntax-ns#"
   xmlns:svg="http://www.w3.org/2000/svg"
   xmlns="http://www.w3.org/2000/svg"
   xmlns:sodipodi="http://sodipodi.sourceforge.net/DTD/sodipodi-0.dtd"
   xmlns:inkscape="http://www.inkscape.org/namespaces/inkscape"
   width="62.087223"
   height="62.083332"
   viewBox="39286 -219228 111757 111749.99"
   style="fill-opacity:1;fill-rule:evenodd;stroke-linecap:butt;stroke-linejoin:miter;stroke-dasharray:none;stroke-opacity:1"
   version="1.1"
   id="svg12"
   sodipodi:docname="riscos.svg"
   inkscape:version="1.0.2 (e86c870879, 2021-01-15)">
  <metadata
     id="metadata18">
    <rdf:RDF>
      <cc:Work
         rdf:about="">
        <dc:format>image/svg+xml</dc:format>
        <dc:type
           rdf:resource="http://purl.org/dc/dcmitype/StillImage" />
        <dc:title></dc:title>
      </cc:Work>
    </rdf:RDF>
  </metadata>
  <defs
     id="defs16" />
  <sodipodi:namedview
     pagecolor="#ffffff"
     bordercolor="#666666"
     borderopacity="1"
     objecttolerance="10"
     gridtolerance="10"
     guidetolerance="10"
     inkscape:pageopacity="0"
     inkscape:pageshadow="2"
     inkscape:window-width="1920"
     inkscape:window-height="1016"
     id="namedview14"
     showgrid="false"
     scale-x="700"
     fit-margin-top="0"
     fit-margin-left="0"
     fit-margin-right="0"
     fit-margin-bottom="0"
     inkscape:pagecheckerboard="false"
     inkscape:zoom="2.5126582"
     inkscape:cx="157.78973"
     inkscape:cy="157.78973"
     inkscape:window-x="0"
     inkscape:window-y="0"
     inkscape:window-maximized="1"
     inkscape:current-layer="svg12" />
  <g
     id="g10"
     transform="translate(-80,-80)">
    <path
       style="fill:#009900;stroke:none"
       d="m 95251,-137888 17958,-7436 7437,-17965 -7437,-17959 -17958,-7436 -17959,7436 -7436,17959 7436,17965 z m -7,29037 c -1875,0 -3731,-96 -5561,-281 l -519,-64 -3513,-19085 -1197,-346 c -2272,-704 -4448,-1625 -6502,-2745 l -666,-378 -15981,11008 -678,-538 c -2688,-2214 -5159,-4684 -7379,-7372 l -544,-692 11008,-15987 -372,-646 c -1113,-2055 -2041,-4231 -2745,-6509 l -346,-1203 -19085,-3520 -64,-499 c -185,-1831 -281,-3687 -281,-5562 0,-1882 96,-3738 281,-5568 l 71,-531 19091,-3520 333,-1171 c 704,-2272 1632,-4448 2745,-6509 l 384,-666 -11008,-15981 532,-672 c 2220,-2688 4691,-5164 7379,-7379 l 697,-557 15988,11015 640,-365 c 2054,-1120 4230,-2042 6502,-2752 l 1197,-339 3520,-19085 505,-64 c 1831,-186 3687,-282 5568,-282 1876,0 3732,96 5562,282 l 531,64 3520,19091 1178,333 c 2272,704 4448,1632 6502,2746 l 647,377 15987,-11008 691,538 c 2688,2221 5158,4691 7379,7379 l 538,691 -11008,15981 377,653 c 1114,2054 2042,4230 2746,6502 l 333,1178 19091,3520 70,525 c 186,1830 276,3686 276,5568 0,1875 -90,3731 -276,5561 l -70,519 -19085,3513 -339,1197 c -704,2272 -1626,4448 -2746,6502 l -371,647 11008,15987 -544,691 c -2214,2688 -4691,5159 -7373,7379 l -684,538 -15981,-11008 -659,378 c -2061,1113 -4237,2041 -6509,2745 l -1184,339 -3520,19092 -519,64 c -1830,185 -3686,281 -5568,281 z"
       id="path2" />
    <g
       id="g8">
      <path
         style="fill:#00e500;stroke:none"
         d="m 147961,-168467 -19008,-3590 2426,-2080 19257,3641 z m -35782,-11737 7008,16934 -7008,16928 -16935,7014 -16934,-7014 -2054,2054 18988,7860 18983,-7860 7865,-18982 -7865,-18989 z m 27341,-17133 -3328,461 -71,-96 c -2157,-2612 -4563,-5018 -7181,-7181 l -89,-71 -15987,10906 -1018,-582 v 0 0 c -1971,-1076 -4064,-1965 -6246,-2644 l -1575,-441 2080,-2426 359,96 c 1772,557 3488,1235 5139,2029 v 0 0 l 1517,774 16185,-11040 1479,1159 c 2764,2278 5299,4819 7577,7577 z m -37056,-21331 -2029,2675 -2464,-186 c -903,-45 -1811,-70 -2727,-70 -915,0 -1824,25 -2726,70 l -2464,186 -3597,19008 -1574,441 c -2176,679 -4269,1568 -6240,2644 h -7 7 l -1018,582 -15987,-10906 -90,71 c -2617,2163 -5024,4569 -7180,7181 l -71,89 10906,15987 -589,1018 c -1069,1971 -1958,4064 -2637,6246 v 0 0 l -448,1575 -19001,3590 -186,2464 c -51,903 -70,1811 -70,2727 0,915 19,1824 70,2726 l 186,2470 -2682,2029 -192,-1510 c -186,-1882 -288,-3783 -288,-5715 0,-1927 102,-3834 288,-5709 l 192,-1511 19258,-3641 102,-359 v 0 0 c 550,-1772 1229,-3488 2022,-5139 l 775,-1517 -11040,-16185 1165,-1479 c 2278,-2758 4812,-5299 7571,-7577 l 1478,-1159 16192,11040 1517,-774 h -6 6 c 1645,-794 3366,-1472 5139,-2029 l 359,-96 3635,-19257 1510,-192 c 1882,-192 3783,-288 5715,-288 1927,0 3834,96 5716,288 z m -40935,64179 448,1574 c 679,2183 1568,4269 2637,6240 v 7 -7 l 582,1024 -10899,15981 -3334,461 11040,-16192 -775,-1511 v 0 0 c -793,-1651 -1472,-3366 -2022,-5139 l -102,-358 z m 24935,24928 3590,19001 -2035,2682 -3635,-19258 z"
         id="path4" />
      <path
         style="fill:#004c00;stroke:none"
         d="m 128953,-172057 2426,-2080 -96,-359 v 0 0 c -551,-1772 -1229,-3488 -2029,-5139 l -774,-1510 11040,-16192 -3328,461 -10906,15987 589,1011 c 1069,1971 1958,4064 2637,6246 v 0 0 z m -50643,25715 -7014,-16934 7014,-16935 16934,-7008 16935,7015 2048,-2055 -18983,-7865 -18988,7865 -7860,18983 7860,18988 z m -35782,-11738 19001,3591 -2425,2080 -19258,-3642 z m 11769,28410 71,90 c 2156,2617 4563,5024 7180,7180 l 90,71 15981,-10899 1024,582 c 1971,1075 4064,1958 6240,2637 v 0 0 l 1581,448 -2080,2425 -359,-102 h -6 6 c -1773,-550 -3494,-1229 -5139,-2022 l -1517,-775 -16192,11040 -1478,-1165 c -2759,-2278 -5293,-4812 -7571,-7571 l -1165,-1478 z m 35757,19110 2464,192 c 902,45 1811,64 2726,64 916,0 1824,-19 2727,-64 l 2464,-192 3590,-19001 1575,-448 v 0 0 c 2182,-679 4275,-1562 6246,-2637 l 1018,-582 15987,10899 89,-71 c 2618,-2156 5024,-4563 7181,-7180 l 71,-90 -10906,-15981 589,-1024 -7,7 7,-7 c 1069,-1971 1958,-4057 2637,-6240 l 441,-1574 19008,-3591 186,-2470 c 45,-902 70,-1811 70,-2726 0,-916 -25,-1824 -70,-2727 l -186,-2464 2675,-2029 199,1511 c 185,1875 288,3782 288,5709 0,1932 -103,3833 -288,5715 l -199,1510 -19251,3642 -102,358 c -551,1773 -1229,3488 -2029,5139 v 0 0 l -774,1511 11040,16192 -1159,1478 c -2278,2759 -4813,5293 -7577,7571 l -1479,1165 -16185,-11040 -1517,775 c -1651,793 -3367,1472 -5139,2022 v 0 0 l -359,102 -3641,19258 -1504,192 c -1882,192 -3789,288 -5716,288 -1932,0 -3833,-96 -5715,-288 l -1510,-192 z m 16051,-88851 -3641,-19257 -2029,2675 3590,19008 z"
         id="path6" />
    </g>
  </g>
</svg>
