<?xml version="1.0" encoding="UTF-8" standalone="no"?>
<svg
   xmlns:dc="http://purl.org/dc/elements/1.1/"
   xmlns:cc="http://creativecommons.org/ns#"
   xmlns:rdf="http://www.w3.org/1999/02/22-rdf-syntax-ns#"
   xmlns:svg="http://www.w3.org/2000/svg"
   xmlns="http://www.w3.org/2000/svg"
   xmlns:sodipodi="http://sodipodi.sourceforge.net/DTD/sodipodi-0.dtd"
   xmlns:inkscape="http://www.inkscape.org/namespaces/inkscape"
   version="1.0"
   width="201.65556"
   height="55.879051"
   viewBox="0 0 685.62894 189.98877"
   id="Layer_1"
   xml:space="preserve"
   sodipodi:docname="Symbian_OS_logo.svg"
   inkscape:version="1.0.2 (e86c870879, 2021-01-15)"><metadata
   id="metadata17"><rdf:RDF><cc:Work
       rdf:about=""><dc:format>image/svg+xml</dc:format><dc:type
         rdf:resource="http://purl.org/dc/dcmitype/StillImage" /><dc:title></dc:title></cc:Work></rdf:RDF></metadata><sodipodi:namedview
   pagecolor="#ffffff"
   bordercolor="#666666"
   borderopacity="1"
   objecttolerance="10"
   gridtolerance="10"
   guidetolerance="10"
   inkscape:pageopacity="0"
   inkscape:pageshadow="2"
   inkscape:window-width="1920"
   inkscape:window-height="1016"
   id="namedview15"
   showgrid="false"
   fit-margin-top="0"
   fit-margin-left="0"
   fit-margin-right="0"
   fit-margin-bottom="0"
   scale-x="3.4"
   inkscape:zoom="2.4342614"
   inkscape:cx="342.81445"
   inkscape:cy="136.32397"
   inkscape:window-x="0"
   inkscape:window-y="0"
   inkscape:window-maximized="1"
   inkscape:current-layer="Layer_1" /><defs
   id="defs26" />
<g
   id="g3">
	<path
   d="m 486.16895,15.211426 c 0,7.749023 -6.3125,13.776367 -14.06446,13.776367 -7.46289,0 -13.48828,-6.027344 -13.48828,-13.776367 0,-7.7490236 6.31445,-13.7744143 14.06543,-13.7744143 7.46191,0 13.48731,6.0253906 13.48731,13.7744143 z"
   style="fill:#fdbf57;fill-rule:evenodd"
   id="path5" />
	<path
   d="m 472.10449,41.042969 c 8.32422,0 15.21485,24.391601 15.21485,54.240723 0,29.846678 -6.89063,53.956538 -15.21485,53.956538 -8.31836,0 -14.9209,-24.10986 -14.9209,-53.956538 0,-29.849122 6.60254,-54.240723 14.9209,-54.240723 z"
   style="fill:#0088bb;fill-rule:evenodd"
   id="path7" />
	<path
   d="M 71.173828,69.45459 C 61.128906,64.287598 53.95459,62.279785 46.491699,62.279785 c -7.74707,0 -12.913574,3.729492 -12.913574,9.756836 0,5.166992 3.442871,7.749023 12.627441,10.331543 l 12.052735,3.156738 c 12.629394,3.156739 16.645019,6.888184 20.089844,11.191895 3.731445,4.880373 5.74121,10.621583 5.74121,17.221683 0,20.95068 -17.507812,35.00927 -43.336914,35.00927 C 28.411133,148.94775 14.920898,145.2207 0,137.47168 l 9.4682617,-19.22705 c 8.0371093,4.87598 22.1000973,11.19189 33.5781253,11.19189 7.464843,0 13.490234,-4.88037 13.490234,-11.19189 0,-6.89063 -5.164551,-10.61963 -15.78418,-12.62988 L 28.98584,103.60742 C 22.383789,102.45801 14.0625,97.57959 10.617187,93.273926 6.8857422,88.967773 4.8779297,81.793457 4.8779297,75.193848 c 0,-19.802246 15.4980473,-33.003907 39.0312503,-33.003907 16.070312,0 26.692383,4.878418 35.874511,9.470704 z"
   style="fill-rule:evenodd"
   id="path9" />
	<path
   d="m 115.94434,43.336914 17.50781,59.121096 c 2.00976,6.02783 5.45264,20.6626 5.45264,20.6626 0,0 2.00781,-11.1919 3.15673,-16.07032 0.86084,-3.44287 2.29639,-9.184079 4.01758,-14.062497 L 161.00293,45.058594 H 188.8418 L 152.39307,147.51904 c -6.88819,19.51319 -12.05274,27.83692 -19.51563,33.29395 -6.60205,4.87207 -15.21191,8.03076 -24.39404,9.17578 l -8.897951,-17.21533 c 5.741211,-1.72119 12.341311,-4.01953 16.358891,-6.88623 2.8706,-2.01367 5.1665,-4.88037 7.4624,-8.32325 2.58252,-4.01953 3.15722,-5.74121 5.73926,-11.7666 0,0 -5.73926,0.28418 -16.35889,-28.41601 L 88.967773,46.493652 Z"
   style="fill-rule:evenodd"
   id="path11" />
	<path
   d="m 222.13379,43.336914 c 1.72168,2.584473 2.58252,5.166504 3.44287,10.044922 6.88867,-6.599609 15.49805,-10.044922 24.68262,-10.044922 8.32324,0 15.20947,2.584473 20.66455,8.323731 1.14697,1.146972 2.58203,3.156738 3.72949,4.877929 9.47217,-9.470214 17.50781,-13.20166 28.69971,-13.20166 7.74902,0 15.20947,2.295899 19.80371,6.315918 5.73926,4.875977 7.46094,10.617188 7.46094,24.677735 V 145.79736 H 305.07471 V 79.211426 c 0,-12.053223 -1.4336,-14.349121 -8.32178,-14.349121 -4.87842,0 -11.76855,3.442871 -17.50781,8.609863 V 145.79736 H 254.27686 V 80.358398 c 0,-12.627441 -1.72168,-15.496093 -9.18457,-15.496093 -4.87842,0 -11.47803,2.295898 -17.21924,7.46289 v 73.472165 h -25.8291 V 75.481934 c 0,-14.639161 -0.86084,-20.664551 -3.73145,-25.829102 z"
   style="fill-rule:evenodd"
   id="path13" />
	<path
   d="m 625.93555,42.476074 c 2.29394,4.017578 3.73144,8.609864 3.73144,12.627442 3.73145,-2.870606 7.17383,-5.164551 11.47852,-7.46045 5.45312,-2.871093 12.34277,-4.306152 18.08398,-4.306152 11.19043,0 21.23535,5.739258 24.38965,14.637207 1.14941,3.731445 2.00977,8.035156 2.00977,14.351074 V 145.79736 H 659.51367 V 80.358398 c 0,-11.478515 -2.00976,-14.923828 -8.89551,-14.923828 -5.16504,0 -12.05468,3.731446 -18.36914,9.184571 V 145.79736 H 605.84473 V 72.897461 c 0,-8.895996 -1.14453,-16.933106 -3.44239,-23.821289 z"
   style="fill-rule:evenodd"
   id="path15" />
	<path
   d="m 584.32129,78.350586 c 0.28906,-10.619629 -0.28711,-13.774414 -1.7207,-18.080566 -3.73145,-10.905762 -15.49805,-17.22168 -32.14454,-17.22168 -9.18554,0 -17.79296,1.723633 -27.54882,5.741211 -6.89063,2.871094 -10.90625,4.880859 -16.0752,8.32373 l 10.90527,18.654785 c 10.90625,-7.176269 20.66309,-11.191894 28.98633,-11.191894 9.76172,0 11.76758,3.729004 11.76758,14.92334 v 4.015625 c -2.00586,-0.286133 -3.72754,-0.286133 -5.73828,-0.286133 -31.85547,0 -48.21484,10.907715 -48.21484,34.440916 0,20.09033 12.05468,31.27783 34.43945,31.27783 21.23828,0 45.63281,-12.04834 45.63281,-33.57373 z m -26.40332,46.205564 c -4.01953,4.30567 -8.89551,6.88819 -13.77637,6.88819 -6.60156,0 -11.47851,-6.88819 -11.47851,-14.63526 0,-12.05469 6.02539,-15.21191 24.39453,-15.21191 h 1.14843 z"
   style="fill-rule:evenodd"
   id="path17" />
	<path
   d="m 399.20703,42.476074 c -9.18066,0 -16.35449,2.58252 -21.52246,8.035156 0.57617,-1.435058 0.57617,-5.739257 0.57617,-8.895996 V 17.793945 c 0,-6.88623 0,-10.9057614 -0.86133,-17.793945 l -26.97998,6.3154297 c 1.43702,5.7392583 1.72608,12.3413083 1.72608,24.6826173 V 112.7915 c 0,15.4961 13.48828,35.01172 43.04687,35.01172 10.04492,0 18.36719,-1.72168 25.25391,-7.1748 12.62695,-9.75684 18.65625,-26.40381 18.65625,-46.780275 0,-31.56836 -15.21289,-51.372071 -39.89551,-51.372071 z m 7.17871,76.915526 c -2.29883,5.45264 -6.31347,8.03516 -12.91601,8.03516 -7.17383,0 -11.19336,-3.44336 -14.63672,-6.6001 V 72.611328 c 3.15429,-4.019531 8.03515,-8.32373 14.92187,-8.32373 6.88965,0 12.34278,4.304199 14.34766,12.916015 0.86523,4.305664 1.1543,8.035157 1.1543,17.219239 0,12.341308 -0.57715,19.515628 -2.8711,24.968748 z"
   style="fill-rule:evenodd"
   id="path19" />
	
	
</g>
</svg>
