<?xml version="1.0" encoding="UTF-8" standalone="no"?>
<svg
   xmlns:dc="http://purl.org/dc/elements/1.1/"
   xmlns:cc="http://creativecommons.org/ns#"
   xmlns:rdf="http://www.w3.org/1999/02/22-rdf-syntax-ns#"
   xmlns:svg="http://www.w3.org/2000/svg"
   xmlns="http://www.w3.org/2000/svg"
   xmlns:sodipodi="http://sodipodi.sourceforge.net/DTD/sodipodi-0.dtd"
   xmlns:inkscape="http://www.inkscape.org/namespaces/inkscape"
   id="svg817"
   width="1.1796663in"
   height="0.41334772in"
   version="1.1"
   viewBox="0 0 2576.39 902.75107"
   sodipodi:docname="VAX_VMS_logo.svg"
   inkscape:version="1.0.2 (e86c870879, 2021-01-15)">
  <defs
     id="defs13" />
  <sodipodi:namedview
     pagecolor="#ffffff"
     bordercolor="#666666"
     borderopacity="1"
     objecttolerance="10"
     gridtolerance="10"
     guidetolerance="10"
     inkscape:pageopacity="0"
     inkscape:pageshadow="2"
     inkscape:window-width="1920"
     inkscape:window-height="1016"
     id="namedview11"
     showgrid="false"
     scale-x="22.74999"
     fit-margin-top="0"
     fit-margin-left="0"
     fit-margin-right="0"
     fit-margin-bottom="0"
     inkscape:zoom="4.04"
     inkscape:cx="122.20286"
     inkscape:cy="48.1406"
     inkscape:window-x="0"
     inkscape:window-y="0"
     inkscape:window-maximized="1"
     inkscape:current-layer="svg817" />
  <metadata
     id="metadata823">
    <rdf:RDF>
      <cc:Work
         rdf:about="">
        <dc:format>image/svg+xml</dc:format>
        <dc:type
           rdf:resource="http://purl.org/dc/dcmitype/StillImage" />
        <dc:title></dc:title>
      </cc:Work>
    </rdf:RDF>
  </metadata>
  <path
     id="path907-3"
     d="m 0,19.751 529,883 510,-883 H 851.6 l -324.6,562 -336.69,-562 z" />
  <g
     id="text1660"
     dominant-baseline="auto"
     stroke-linecap="round"
     stroke-linejoin="round"
     style="font-variant-ligatures:normal;font-variant-position:normal;font-variant-caps:normal;font-variant-numeric:normal;font-variant-alternates:normal;font-feature-settings:normal;text-indent:0;text-decoration:none;text-decoration-line:none;text-decoration-style:solid;text-decoration-color:#000000;text-transform:none;text-orientation:mixed;white-space:normal;shape-padding:0;paint-order:normal"
     aria-label="S"
     transform="translate(-302.61,-902.799)">
    <path
       id="path1923"
       d="m 2879,1517.8 q 0,116.63 -79.65,196.85 -79.65,79.65 -195.71,79.65 -115.49,0 -194,-69.978 -78.512,-70.547 -88.752,-191.16 h 166.7 q 10.241,106.96 116.06,106.96 51.772,0 84.201,-29.015 32.429,-29.015 32.429,-75.667 0,-56.893 -39.256,-87.615 -18.206,-14.223 -38.118,-22.757 -19.344,-8.5339 -111.51,-43.238 -86.477,-32.429 -133.13,-92.735 -46.083,-60.875 -46.083,-141.66 0,-102.41 72.823,-173.52 73.391,-71.116 177.5,-71.116 106.39,0 178.07,66.564 71.685,66.564 77.374,178.07 h -165.56 q -3.4135,-43.238 -27.308,-67.133 -23.8945,-23.895 -63.72,-23.895 -39.256,0 -63.72,24.464 -24.464,24.464 -24.464,63.151 0,47.79 47.79,77.943 15.361,9.1028 95.011,38.687 126.3,47.221 174.66,106.39 48.359,59.168 48.359,150.77 z"
       stroke-width="0.58258" />
  </g>
  <path
     id="path1632"
     d="m 1087.7378,19.776 v 855.975 h 163.2 V 237.0885 l 285.705,493.14 285.705,-493.14 V 875.751 h 163.2 V 19.776 H 1795.2353 L 1536.6428,448.0785 1278.0503,19.776 Z"
     style="stroke-width:0.75" />
</svg>
