<?xml version="1.0" encoding="UTF-8" standalone="no"?>
<svg
   xmlns:dc="http://purl.org/dc/elements/1.1/"
   xmlns:cc="http://creativecommons.org/ns#"
   xmlns:rdf="http://www.w3.org/1999/02/22-rdf-syntax-ns#"
   xmlns:svg="http://www.w3.org/2000/svg"
   xmlns="http://www.w3.org/2000/svg"
   xmlns:sodipodi="http://sodipodi.sourceforge.net/DTD/sodipodi-0.dtd"
   xmlns:inkscape="http://www.inkscape.org/namespaces/inkscape"
   height="53.653614"
   width="60.82143"
   version="1.1"
   id="svg10"
   sodipodi:docname="Unofficial_Windows_logo_variant_-_2002–2012_(Multicolored).svg"
   viewBox="0 0 170.3 150.23012"
   inkscape:version="1.0.2 (e86c870879, 2021-01-15)">
  <metadata
     id="metadata16">
    <rdf:RDF>
      <cc:Work
         rdf:about="">
        <dc:format>image/svg+xml</dc:format>
        <dc:type
           rdf:resource="http://purl.org/dc/dcmitype/StillImage" />
        <dc:title></dc:title>
      </cc:Work>
    </rdf:RDF>
  </metadata>
  <defs
     id="defs14" />
  <sodipodi:namedview
     pagecolor="#ffffff"
     bordercolor="#666666"
     borderopacity="1"
     objecttolerance="10"
     gridtolerance="10"
     guidetolerance="10"
     inkscape:pageopacity="0"
     inkscape:pageshadow="2"
     inkscape:window-width="1920"
     inkscape:window-height="1016"
     id="namedview12"
     showgrid="false"
     scale-x="2.8"
     fit-margin-top="0"
     fit-margin-left="0"
     fit-margin-right="0"
     fit-margin-bottom="0"
     inkscape:zoom="5.2933333"
     inkscape:cx="85"
     inkscape:cy="75.006548"
     inkscape:window-x="0"
     inkscape:window-y="0"
     inkscape:window-maximized="1"
     inkscape:current-layer="svg10" />
  <path
     d="m 170,20.715061 c -33,13.7 -49,6 -63.2,-3.6 l -16,56.4 c 14.3,9.7 31.5,17.7 63.2,3.5 l 16.3,-56.3 z"
     fill="#91c300"
     id="path2" />
  <path
     d="m 63,134.21506 c -14.3,-9.6 -30,-17.6 -63,-3.9 L 16.2,73.715061 c 33,-13.6 49,-5.9 63.3,3.8 z"
     fill="#00b4f1"
     id="path4" />
  <path
     d="m 82.2,67.315061 a 53.9,53.9 0 0 0 -31,-11.3 c -8.7,-0.1 -19.1,2.4 -32.2,7.8 L 35.2,7.4150608 c 33.1,-13.7 49,-6 63.3,3.7000002 z"
     fill="#f8682c"
     id="path6" />
  <path
     d="m 88,83.015061 c 14.4,9.6 30.3,17.299999 63.3,3.6 L 135,142.81506 c -33,13.7 -48.9,6 -63.2,-3.7 L 88.1,83.015061 Z"
     fill="#ffc300"
     id="path8" />
</svg>
